<?xml version="1.0" standalone="no"?>
<!DOCTYPE svg PUBLIC "-//W3C//DTD SVG 20010904//EN"
 "http://www.w3.org/TR/2001/REC-SVG-20010904/DTD/svg10.dtd">
<svg version="1.0" xmlns="http://www.w3.org/2000/svg"
 width="2500.000000pt" height="2500.000000pt" viewBox="0 0 2500.000000 2500.000000"
 preserveAspectRatio="xMidYMid meet">
<metadata>
Created by potrace 1.11, written by Peter Selinger 2001-2013
</metadata>
<g transform="translate(0.000000,2500.000000) scale(0.100000,-0.100000)"
fill="#000000" stroke="none">
<path d="M12160 21590 c-610 -34 -1158 -110 -1715 -240 -174 -40 -595 -160
-765 -217 -620 -209 -1193 -467 -1725 -776 -544 -316 -1004 -647 -1484 -1067
-200 -174 -629 -600 -806 -800 -1097 -1240 -1823 -2688 -2164 -4315 -251
-1198 -250 -2531 3 -3735 60 -285 68 -317 172 -690 194 -691 526 -1467 906
-2115 548 -934 1259 -1772 2089 -2462 779 -648 1666 -1168 2604 -1526 917
-350 1836 -544 2832 -598 288 -15 1014 -7 1293 15 685 54 1206 142 1825 306
1479 393 2760 1132 3795 2187 508 517 903 1041 1283 1703 94 164 341 657 400
800 182 436 245 608 358 975 218 709 342 1377 415 2235 21 247 30 1127 15
1421 -21 400 -65 754 -142 1134 -17 83 -33 158 -35 168 -5 16 -219 17 -4362
15 l-4357 -3 0 -1720 0 -1720 2558 -3 c1444 -1 2557 -6 2557 -11 0 -25 -62
-333 -89 -437 -33 -131 -112 -368 -168 -504 -248 -600 -595 -1115 -1059 -1571
-228 -224 -419 -379 -684 -554 -205 -136 -296 -188 -535 -305 -756 -371 -1599
-553 -2565 -553 -405 0 -730 31 -1091 103 -386 77 -804 210 -1149 365 -1281
575 -2298 1600 -2866 2890 -238 541 -394 1116 -464 1710 -94 797 0 1662 269
2474 204 615 553 1248 970 1761 847 1042 1991 1732 3286 1984 609 118 1330
126 1960 21 603 -101 1167 -300 1710 -605 289 -163 676 -446 887 -649 l58 -55
122 120 c68 66 305 297 528 514 222 217 612 598 865 845 253 248 606 592 784
765 l323 315 -68 64 c-212 196 -563 482 -824 670 -1033 743 -2160 1237 -3405
1491 -423 87 -805 137 -1300 171 -210 14 -847 19 -1045 9z"/>
</g>
</svg>
